# xmcd CD database file
#
# Track frame offsets:
#	150
#	28260
#	61202
#	93812
#	119012
#	141752
#	173982
#	193050
#	226315
#	249157
#	274475
#	299550
#
# Disc length: 4325 seconds
#
# Revision: 0
# Processed by: cddbd v1.5.2PL0 Copyright (c) Steve Scherf et al.
# Submitted via: CDex 1.51
#
DISCID=b510e30c
DTITLE=Southern Arts Federation - JazzSouth Sampler Number 3
DYEAR=1996
DGENRE=Jazz
TTITLE0=Paul Tardif - One For Nick
TTITLE1=Jeff Kirk - Jimmy L
TTITLE2=Beegie Adair - I Hear A Rhapsody [Fragos/Baker/Gasparre]
TTITLE3=Astral Project - Bongo Joe [J Singleton]
TTITLE4=Life Force - The Happiness Habit [J Jennings]
TTITLE5=Neslort - The Bogsquat Shuffle [R Trolsen]
TTITLE6=Danielsson Welch Trio - Small Wonders
TTITLE7=Univ of Kentucky Jazz Ensemble - High Top [N Bewley]
TTITLE8=Ron Rudkin - Bees That Burp
TTITLE9=John Sharp - Better Than Dreams
TTITLE10=Tommy Gill - More Orange Than Blue
TTITLE11=Louisiana Jazz 5 - Sly Dell [R Condit]
EXTD=YEAR: 1996
EXTT0=
EXTT1=
EXTT2=
EXTT3=
EXTT4=
EXTT5=
EXTT6=
EXTT7=
EXTT8=
EXTT9=
EXTT10=
EXTT11=
PLAYORDER=
